<?xml version="1.0" encoding="UTF-8"?><svg id="Add-ons" xmlns="http://www.w3.org/2000/svg" viewBox="0 0 120 120"><path d="m59.561065,9.9364396h50.5024954v50.5024955c0,27.3885763-22.236049,49.6246253-49.6246253,49.6246253h-.8778702c-27.3885763,0-49.6246253-22.236049-49.6246253-49.6246253v-.8778702c0-27.3885763,22.236049-49.6246254,49.6246254-49.6246254Z" fill="#fff"/><path d="m60,7.1999817c-.0007935,0-.0016479.000061-.0024414.000061-29.130188.0013428-52.7476807,23.5928345-52.7953491,52.7121582-.000061.0294189-.0021973.0583496-.0021973.0877686v.000061c0,29.1606445,23.6393433,52.7999878,52.7999878,52.7999878h.0001221c.0294189,0,.0582886-.0021362.0877075-.0021973,29.1199341-.0476685,52.7121582-23.6665649,52.7121582-52.7977905V7.1999817h-52.7999878Zm47.999939,52.8000488c0,26.4672241-21.5327148,48-47.999939,48S12,86.4672546,12,59.9999695,33.5327759,11.9999695,60,11.9999695h47.999939v48.000061Z" fill="#aa946d"/><circle cx="59.4310062" cy="64.0632433" r="20.8632163" fill="#aa946d"/><path d="m51.7981746,75.1587058c-.5015624,0-1.0054685-.1570312-1.4367184-.4804686-8.083592-6.06328-16.0218716-3.2812493-16.354684-3.1593743l-1.3968747.5062499-1.0874998-1.0171873-13.7343721-13.0382785c-.9609373-.9140623-1.000781-2.432812-.0890625-3.3937493.9164061-.9609373,2.432812-1.000781,3.3937493-.0890625l12.7406223,12.0937474c3.2648431-.7781248,11.3296851-1.8023434,19.4062459,4.2585928,1.0617185.7945311,1.2773435,2.2992183.4804686,3.358593-.4710936.6304686-1.1929685.9609373-1.9218746.9609373Z"/><path d="m45.5989571,54.7633977c-1.3265622,0-2.3999995-1.0734373-2.3999995-2.3999995v-28.4953064c0-1.3265622,1.0734373-2.3999995,2.3999995-2.3999995s2.3999995,1.0734373,2.3999995,2.3999995v28.4953064c0,1.3265622-1.0734373,2.3999995-2.3999995,2.3999995Z"/><path d="m59.9989541,50.6923048c-1.3265622,0-2.3999995-1.0734373-2.3999995-2.3999995v-28.4929627c0-1.3265622,1.0734373-2.3999995,2.3999995-2.3999995s2.3999995,1.0734373,2.3999995,2.3999995v28.4929627c0,1.3265622-1.0734373,2.3999995-2.3999995,2.3999995Z"/><path d="m74.398951,54.7633977c-1.3265622,0-2.3999995-1.0734373-2.3999995-2.3999995v-26.4585881c0-1.3265622,1.0734373-2.3999995,2.3999995-2.3999995s2.3999995,1.0734373,2.3999995,2.3999995v26.4585881c0,1.3265622-1.0734373,2.3999995-2.3999995,2.3999995Z"/><path d="m71.9989515,100.7993254c-1.3265622,0-2.3999995-1.0734373-2.3999995-2.3999995v-10.7554665l1.160156-.8789061c8.1937483-4.9617177,13.0874972-13.6382784,13.0874972-23.2078076v-25.4414008c0-1.3265622,1.0734373-2.3999995,2.3999995-2.3999995s2.3999995,1.0734373,2.3999995,2.3999995l-.0164062,26.4585881c-.3210937,10.403904-5.5640613,19.8117145-14.2289032,25.5632758l-.0023437,8.261717c0,1.3265622-1.0734373,2.3999995-2.3999995,2.3999995Z"/></svg>